{"title":"12 Monkeys S02E13 Memory of Tomorrow 1080P WEB-DL DD5 1 H 264","uid":15350016,"size":1771148757,"categoryP":"video","categoryS":"hd___tv_shows","magnet":"?xt=urn:btih:c62069c7ba30540190e156ef856900bb2196f941&amp;dn=12+Monkeys+S02E13+Memory+of+Tomorrow+1080P+WEB-DL+DD5+1+H+264&amp;tr=udp%3A%2F%2Ftracker.leechers-paradise.org%3A6969&amp;tr=udp%3A%2F%2Fzer0day.ch%3A1337&amp;tr=udp%3A%2F%2Fopen.demonii.com%3A1337&amp;tr=udp%3A%2F%2Ftracker.coppersurfer.tk%3A6969&amp;tr=udp%3A%2F%2Fexodus.desync.com%3A6969","seeders":4,"leechers":2,"uploader":"jmanwf","files":1,"time":1468924814,"description":"Cole and Railly have finally found peace living in the past. When a mysterious woman with apocalyptic visions of the future tells Cole it's not over, he must do the unthinkable to save the world... and the woman he loves.\r\n\r\n\r\n\r\nVideo\r\nID : 3\r\nFormat : AVC\r\nFormat/Info : Advanced Video Codec\r\nFormat profile :   \r\nFormat settings, CABAC : Yes\r\nFormat settings, ReFrames : 4 frames\r\nCodec ID : V_MPEG4/ISO/AVC\r\nDuration : 43mn 0s\r\nBit rate : 4 976 Kbps\r\nWidth : 1 920 pixels\r\nHeight : 1 080 pixels\r\nDisplay aspect ratio : 16:9\r\nFrame rate mode : Constant\r\nFrame rate : 23.976 fps\r\nColor space : YUV\r\nChroma subsampling : 4:2:0\r\nBit depth : 8 bits\r\nScan type : Progressive\r\nBits/(Pixel*Frame) : 0.100\r\nStream size : 1.50 GiB (91%)\r\nLanguage : English\r\nDefault : Yes\r\nForced : No\r\nColor range : Limited\r\nColor primaries : BT.709\r\nTransfer characteristics : BT.709\r\nMatrix coefficients : BT.709\r\n\r\nAudio #1\r\nID : 1\r\nFormat : AAC\r\nFormat/Info : Advanced Audio Codec\r\nFormat profile : LC\r\nCodec ID : A_AAC\r\nDuration : 43mn 1s\r\nBit rate : 127 Kbps\r\nChannel(s) : 2 channels\r\nChannel positions : Front: L R\r\nSampling rate : 48.0 KHz\r\nFrame rate : 46.875 fps (1024 spf)\r\nCompression mode : Lossy\r\nStream size : 39.1 MiB (2%)\r\nLanguage : English\r\nDefault : Yes\r\nForced : No\r\n\r\nAudio #2\r\nID : 2\r\nFormat : AC-3\r\nFormat/Info : Audio Coding 3\r\nMode extension : CM (complete main)\r\nFormat settings, Endianness : Big\r\nCodec ID : A_AC3\r\nDuration : 43mn 1s\r\nBit rate mode : Constant\r\nBit rate : 384 Kbps\r\nChannel(s) : 6 channels\r\nChannel positions : Front: L C R, Side: L R, LFE\r\nSampling rate : 48.0 KHz\r\nFrame rate : 31.250 fps (1536 spf)\r\nCompression mode : Lossy\r\nStream size : 118 MiB (7%)\r\nLanguage : English\r\nDefault : No\r\nForced : No\r\n\r\nText\r\nID : 4\r\nFormat : UTF-8\r\nCodec ID : S_TEXT/UTF8\r\nCodec ID/Info : UTF-8 Plain Text\r\nDuration : 42mn 49s\r\nBit rate : 81 bps\r\nCount of elements : 771\r\nStream size : 25.5 KiB (0%)\r\nLanguage : English\r\nDefault : Yes\r\nForced : No","torrent":{"xt":"urn:btih:c62069c7ba30540190e156ef856900bb2196f941","amp;dn":"12+Monkeys+S02E13+Memory+of+Tomorrow+1080P+WEB-DL+DD5+1+H+264","amp;tr":["udp%3A%2F%2Ftracker.leechers-paradise.org%3A6969","udp%3A%2F%2Fzer0day.ch%3A1337","udp%3A%2F%2Fopen.demonii.com%3A1337","udp%3A%2F%2Ftracker.coppersurfer.tk%3A6969","udp%3A%2F%2Fexodus.desync.com%3A6969"],"infoHash":"c62069c7ba30540190e156ef856900bb2196f941","infoHashBuffer":{"type":"Buffer","data":[198,32,105,199,186,48,84,1,144,225,86,239,133,105,0,187,33,150,249,65]},"announce":[],"urlList":[]}}